<svg width="18" height="18" viewBox="0 0 18 18" fill="none" xmlns="http://www.w3.org/2000/svg">
<path fill-rule="evenodd" clip-rule="evenodd" d="M2.22855 1.52145C2.03329 1.32618 1.71671 1.32618 1.52145 1.52145C1.32618 1.71671 1.32618 2.03329 1.52145 2.22855L8.24495 8.95206L1.52147 15.6755C1.32621 15.8708 1.32621 16.1874 1.52147 16.3826C1.71674 16.5779 2.03332 16.5779 2.22858 16.3826L8.95207 9.65917L8.9521 9.65913L15.6756 16.3826C15.8709 16.5779 16.1875 16.5779 16.3827 16.3826C16.578 16.1874 16.578 15.8708 16.3827 15.6755L9.65921 8.95203L16.3827 2.22855C16.578 2.03329 16.578 1.71671 16.3827 1.52145C16.1874 1.32618 15.8708 1.32618 15.6756 1.52145L8.9521 8.24492L8.95206 8.24495L2.22855 1.52145Z" fill="#5A5A89"/>
</svg>
